<svg width="704" height="152" viewbox="0 0 704 152" fill="none" xmlns="http://www.w3.org/2000/svg"><g clip-path="url(#clip0)"><path d="M58 108h14V74L52 59v43c0 3.315 2.685 6 6 6z" fill="#4285F4"/><path d="M120 108h14c3.315 0 6-2.685 6-6V59l-20 15v34z" fill="#34A853"/><path d="M120 48v26l20-15v-8c0-7.415-8.465-11.65-14.4-7.2L120 48z" fill="#FBBC04"/><path fill-rule="evenodd" clip-rule="evenodd" d="M72 74V48l24 18 24-18v26L96 92 72 74z" fill="#EA4335"/><path d="M52 51v8l20 15V48l-5.6-4.2C60.465 39.35 52 43.585 52 51z" fill="#C5221F"/><path d="M244 56h-40v40h40V56z" fill="#fff"/><path d="M212.205 87.03c-1.495-1.01-2.53-2.485-3.095-4.435l3.47-1.43c.315 1.2.865 2.13 1.65 2.79.78.66 1.73.985 2.84.985 1.135 0 2.11-.345 2.925-1.035s1.225-1.57 1.225-2.635c0-1.09-.43-1.98-1.29-2.67-.86-.69-1.94-1.035-3.23-1.035h-2.005V74.13h1.8c1.11 0 2.045-.3 2.805-.9.76-.6 1.14-1.42 1.14-2.465 0-.93-.34-1.67-1.02-2.225-.68-.555-1.54-.835-2.585-.835-1.02 0-1.83.27-2.43.815a4.784 4.784 0 00-1.31 2.005l-3.435-1.43c.455-1.29 1.29-2.43 2.515-3.415 1.225-.985 2.79-1.48 4.69-1.48 1.405 0 2.67.27 3.79.815 1.12.545 2 1.3 2.635 2.26.635.965.95 2.045.95 3.245 0 1.225-.295 2.26-.885 3.11-.59.85-1.315 1.5-2.175 1.955v.205a6.605 6.605 0 012.79 2.175c.725.975 1.09 2.14 1.09 3.5 0 1.36-.345 2.575-1.035 3.64s-1.645 1.905-2.855 2.515c-1.215.61-2.58.92-4.095.92-1.755.005-3.375-.5-4.87-1.51zM233.52 69.81l-3.81 2.755-1.905-2.89 6.835-4.93h2.62V88h-3.74V69.81z" fill="#4285F4"/><path d="M244 96h-40v18h40V96z" fill="#34A853"/><path d="M244 38h-52c-3.315 0-6 2.685-6 6v52h18V56h40V38z" fill="#4285F4"/><path d="M186 96v12c0 3.315 2.685 6 6 6h12V96h-18z" fill="#188038"/><path d="M262 56h-18v40h18V56z" fill="#FBBC04"/><path d="M262 56V44c0-3.315-2.685-6-6-6h-12v18h18z" fill="#1967D2"/><path d="M244 114l18-18h-18v18z" fill="#EA4335"/><path d="M314.95 104.85l3.85 6.65c.8 1.4 1.95 2.5 3.3 3.3L335.85 91h-27.5c0 1.55.4 3.1 1.2 4.5l5.4 9.35z" fill="#0066DA"/><path d="M352 63l-13.75-23.8c-1.35.8-2.5 1.9-3.3 3.3l-25.4 44a9.06 9.06 0 00-1.2 4.5h27.5L352 63z" fill="#00AC47"/><path d="M381.9 114.8c1.35-.8 2.5-1.9 3.3-3.3l1.6-2.75 7.65-13.25c.8-1.4 1.2-2.95 1.2-4.5h-27.502L374 102.5l7.9 12.3z" fill="#EA4335"/><path d="M352 63l13.75-23.8c-1.35-.8-2.9-1.2-4.5-1.2h-18.5c-1.6 0-3.15.45-4.5 1.2L352 63z" fill="#00832D"/><path d="M368.15 91h-32.3l-13.75 23.8c1.35.8 2.9 1.2 4.5 1.2h50.8c1.6 0 3.15-.45 4.5-1.2L368.15 91z" fill="#2684FC"/><path d="M381.75 64.5l-12.7-22c-.8-1.4-1.95-2.5-3.3-3.3L352 63l16.15 28h27.45c0-1.55-.4-3.1-1.2-4.5l-12.65-22z" fill="#FFBA00"/><path d="M470 98h-22v16c0 3.315 2.685 6 6 6h16V98z" fill="#00832D"/><path d="M470 32h-16c-3.315 0-6 2.685-6 6v60h22V54h20V32h-20z" fill="#FFBA00"/><path d="M512 98h-22v22h16c3.315 0 6-2.685 6-6V98z" fill="#0066DA"/><path d="M490 98h-20v22h20V98z" fill="#00AC47"/><path d="M490 54v44h22V54h-22z" fill="#2684FC"/><path d="M490 32v22h22l-22-22z" fill="#EA4335"/><path d="M490 54h-20v44h20V54z" fill="#fff"/><path d="M614 76l8.53 9.75L634 93.08l2-17.015-2-16.64-11.69 6.44L614 76z" fill="#00832D"/><path d="M564.5 91.5V106c0 3.315 2.685 6 6 6H585l3-10.96-3-9.54-9.95-3-10.55 3z" fill="#0066DA"/><path d="M585 40l-20.5 20.5 10.55 3 9.95-3 2.95-9.415L585 40z" fill="#E94235"/><path d="M585 60.5h-20.5v31H585v-31z" fill="#2684FC"/><path d="M647.095 48.68L634 59.425V93.08l13.15 10.785c1.97 1.54 4.85.135 4.85-2.365V51c0-2.535-2.945-3.925-4.905-2.32zM614 76v15.5h-29V112h43c3.315 0 6-2.685 6-6V93.08L614 76z" fill="#00AC47"/><path d="M628 40h-43v20.5h29V76l20-16.575V46c0-3.315-2.685-6-6-6z" fill="#FFBA00"/></g><defs><clipPath id="clip0"><path fill="#fff" d="M0 0h704v152H0z"/></clipPath></defs></svg>
